# xmcd
#
# Track frame offsets: 
#        150
#        18405
#        35296
#        51551
#        70631
#        85946
#        100740
#        119230
#        133783
#        152846
#        170881
#        187697
#        200935
#
# Disc length: 2997 seconds
#
# Revision: 0
# Processed by: cddbd v1.5.2PL0 Copyright (c) Steve Scherf et al.
# Submitted via: ExactAudioCopyFreeDBPlugin 1.0
#
DISCID=bb0bb30d
DTITLE=Charlie Wilson - In It To Win It
DYEAR=2017
DGENRE=R&B
TTITLE0=I'm Blessed (feat. T.I.)
TTITLE1=Chills
TTITLE2=Good Time (feat. Pitbull)
TTITLE3=Us Trust (feat. Wiz Khalifa)
TTITLE4=Precious Love
TTITLE5=Smile For Me (feat. Robin Thicke)
TTITLE6=In It To Win It
TTITLE7=Dance Tonight
TTITLE8=Made For Love (feat. Lalah Hathaway)
TTITLE9=Better
TTITLE10=Gold Rush (feat. Snoop Dogg)
TTITLE11=New Addiction
TTITLE12=Amazing God
EXTD=
EXTT0=
EXTT1=
EXTT2=
EXTT3=
EXTT4=
EXTT5=
EXTT6=
EXTT7=
EXTT8=
EXTT9=
EXTT10=
EXTT11=
EXTT12=
PLAYORDER=
